<svg width="78" height="48" viewBox="0 0 78 48" fill="none" xmlns="http://www.w3.org/2000/svg">
<path d="M26.9001 40C25.0001 40 24.2001 39.0001 24.1001 37.4001H25.6001C25.7001 38.4001 26.4001 38.7001 26.9001 38.7001C27.6001 38.7001 28.1001 38.2 28.1001 37.5C28.1001 36.6 27.4001 36.4 26.3001 36C25.6001 35.8 24.2001 35.3001 24.2001 33.7001C24.2001 32.2001 25.5001 31.3 26.9001 31.3C27.7001 31.3 28.5001 31.6001 29.0001 32.2001C29.4001 32.7001 29.5001 33.2 29.5001 33.6H28.0001C27.9001 33.2 27.7001 32.6 26.9001 32.6C26.3001 32.6 25.8001 33.1 25.8001 33.6C25.8001 34.4 26.3001 34.5 27.7001 35.1C29.1001 35.7 29.7001 36.5 29.7001 37.5C29.7001 38.7 28.8001 40 26.9001 40Z" fill="black"/>
<path d="M36.2002 36.2C35.6002 36.6 35.1002 36.8 33.9002 36.8H32.7002V39.8H31.2002V31.5H33.7002C35.1002 31.5 35.6002 31.7 36.1002 32.1C36.7002 32.6 37.1002 33.4 37.1002 34.2C37.2002 35 36.8002 35.8 36.2002 36.2ZM35.2002 33.1C34.8002 32.9 34.4002 32.8 33.9002 32.8H32.9002V35.5H34.0002C34.5002 35.5 34.9002 35.5 35.3002 35.3C35.6002 35.1 35.9002 34.7 35.9002 34.2C35.7002 33.7 35.5002 33.3 35.2002 33.1Z" fill="black"/>
<path d="M43.5 39.8L42.7 37.9001H39.4L38.6 39.8H37L40.9 31.3H41.2L45.1 39.8H43.5ZM41 34L39.7 36.7001H42.2L41 34Z" fill="black"/>
<path d="M46.8999 39.8V31.5H48.3999V39.8H46.8999Z" fill="black"/>
<path d="M57.1999 40H56.7999L51.7999 34.4001V39.8H50.3999V31.3H50.7999L55.7999 36.9001V31.5H57.1999V40Z" fill="black"/>
<path d="M62.5762 8.72161H64.3874V26.6585H62.7526V26.8521H76.093V20.1078H76.0004C75.678 27.1449 67.4677 26.6585 67.4677 26.6585L67.5136 26.6659V17.6098C69.1172 17.6098 71.2977 17.3807 71.6198 21.4959H71.6768V13.5816H71.6198C71.2064 17.3795 69.0777 17.4065 67.5136 17.4065V8.68608V8.75591C70.5952 8.75591 73.9707 8.15438 75.2806 14.7136H75.3546V8.53906H62.5762V8.72161Z" fill="url(#paint0_linear_2501_363)"/>
<path d="M62.949 8.71915V8.53906H59.1476V8.71915H60.8291V22.1207C60.7674 25.4849 58.3066 27.0273 56.409 26.9587C52.9274 26.8337 52.5274 23.5639 52.5274 22.8901V8.71915H54.1929V8.53906H47.7148V8.71915H49.4335L49.4283 21.2496C49.4283 24.6089 51.1482 27.2 56.1707 27.2C59.5388 27.2 61.0847 24.4239 61.0501 22.1219V8.71915H62.949Z" fill="url(#paint1_linear_2501_363)"/>
<path d="M46.4139 19.3188H47.8264V19.1375H42.0186V19.3188H43.51V23.3776C43.51 25.2557 42.694 26.9709 40.1086 27.0211C38.2492 27.0468 37.2282 26.0018 36.6838 24.555C36.0947 23.0064 35.8776 21.3819 35.8776 17.7005C35.8776 15.3397 36.0947 11.8358 36.911 10.2616C37.296 9.52527 37.9998 8.22297 40.063 8.23032C42.6507 8.24012 44.157 10.3375 45.2694 14.7296H45.325V8H45.2657C44.7213 9.29495 42.6705 8.66156 42.6705 8.66156C41.5371 8.30628 41.0383 8.05268 40.0395 8.05268C36.8418 8.05268 32.4414 11.2772 32.4414 17.9296C32.4414 23.3629 35.7293 27.2 40.2198 27.2C42.0792 27.2 43.2137 25.856 44.8002 25.856C45.299 25.856 46.214 26.166 46.3731 26.9525H46.4115L46.4139 19.3188Z" fill="url(#paint2_linear_2501_363)"/>
<path d="M27.362 17.5976C27.362 18.8937 27.2596 23.0346 26.1693 25.0928C25.4879 26.4147 24.3075 26.9721 22.9211 26.9721C21.5357 26.9721 20.3542 26.4135 19.6739 25.0928C18.5837 23.0346 18.4812 18.8925 18.4812 17.5976C18.4812 16.3014 18.5837 12.2867 19.6739 10.1526C20.3332 8.83065 21.5357 8.27323 22.9211 8.27323C24.3062 8.27323 25.5101 8.83188 26.1693 10.1526C27.2596 12.2867 27.362 16.3014 27.362 17.5976ZM30.8709 17.5976C30.8709 11.8555 26.715 8.09436 22.9221 8.09436C19.1294 8.09436 14.9736 11.8555 14.9736 17.5976C14.9736 23.3397 19.2665 27.151 22.9221 27.151C26.578 27.151 30.8709 23.3397 30.8709 17.5976Z" fill="url(#paint3_linear_2501_363)"/>
<path d="M13.2624 8.5415V8.7167H14.9749L10.7598 22.7136L5.66818 8.7167H7.13986V8.5415H1V8.7167H2.68528L9.5894 26.9513H9.68817L15.1836 8.7167H16.6528V8.5415H13.2624Z" fill="url(#paint4_linear_2501_363)"/>
<defs>
<linearGradient id="paint0_linear_2501_363" x1="3.03244" y1="13.5385" x2="76.1158" y2="24.0561" gradientUnits="userSpaceOnUse">
<stop stop-color="#E40203"/>
<stop offset="0.121095" stop-color="#FF8B01"/>
<stop offset="0.248763" stop-color="#FFED00"/>
<stop offset="0.347212" stop-color="#008025"/>
<stop offset="0.410983" stop-color="#004DFF"/>
<stop offset="0.513243" stop-color="#750586"/>
<stop offset="0.621951" stop-color="#FEAFC7"/>
<stop offset="0.736203" stop-color="#75D7EF"/>
<stop offset="0.85549" stop-color="#613A15"/>
<stop offset="1"/>
</linearGradient>
<linearGradient id="paint1_linear_2501_363" x1="3.03254" y1="13.5385" x2="76.1159" y2="24.0561" gradientUnits="userSpaceOnUse">
<stop stop-color="#E40203"/>
<stop offset="0.121095" stop-color="#FF8B01"/>
<stop offset="0.248763" stop-color="#FFED00"/>
<stop offset="0.347212" stop-color="#008025"/>
<stop offset="0.410983" stop-color="#004DFF"/>
<stop offset="0.513243" stop-color="#750586"/>
<stop offset="0.621951" stop-color="#FEAFC7"/>
<stop offset="0.736203" stop-color="#75D7EF"/>
<stop offset="0.85549" stop-color="#613A15"/>
<stop offset="1"/>
</linearGradient>
<linearGradient id="paint2_linear_2501_363" x1="3.03291" y1="13.5385" x2="76.1163" y2="24.0561" gradientUnits="userSpaceOnUse">
<stop stop-color="#E40203"/>
<stop offset="0.121095" stop-color="#FF8B01"/>
<stop offset="0.248763" stop-color="#FFED00"/>
<stop offset="0.347212" stop-color="#008025"/>
<stop offset="0.410983" stop-color="#004DFF"/>
<stop offset="0.513243" stop-color="#750586"/>
<stop offset="0.621951" stop-color="#FEAFC7"/>
<stop offset="0.736203" stop-color="#75D7EF"/>
<stop offset="0.85549" stop-color="#613A15"/>
<stop offset="1"/>
</linearGradient>
<linearGradient id="paint3_linear_2501_363" x1="3.03278" y1="13.5385" x2="76.1162" y2="24.0561" gradientUnits="userSpaceOnUse">
<stop stop-color="#E40203"/>
<stop offset="0.121095" stop-color="#FF8B01"/>
<stop offset="0.248763" stop-color="#FFED00"/>
<stop offset="0.347212" stop-color="#008025"/>
<stop offset="0.410983" stop-color="#004DFF"/>
<stop offset="0.513243" stop-color="#750586"/>
<stop offset="0.621951" stop-color="#FEAFC7"/>
<stop offset="0.736203" stop-color="#75D7EF"/>
<stop offset="0.85549" stop-color="#613A15"/>
<stop offset="1"/>
</linearGradient>
<linearGradient id="paint4_linear_2501_363" x1="3.03278" y1="13.5385" x2="76.1162" y2="24.0561" gradientUnits="userSpaceOnUse">
<stop stop-color="#E40203"/>
<stop offset="0.121095" stop-color="#FF8B01"/>
<stop offset="0.248763" stop-color="#FFED00"/>
<stop offset="0.347212" stop-color="#008025"/>
<stop offset="0.410983" stop-color="#004DFF"/>
<stop offset="0.513243" stop-color="#750586"/>
<stop offset="0.621951" stop-color="#FEAFC7"/>
<stop offset="0.736203" stop-color="#75D7EF"/>
<stop offset="0.85549" stop-color="#613A15"/>
<stop offset="1"/>
</linearGradient>
</defs>
</svg>
