<svg width="128" height="30" viewBox="0 0 128 30" fill="none" xmlns="http://www.w3.org/2000/svg">
<path d="M52.6 30C50.9 30 50.1 29 50 27.6H51.4C51.5 28.5 52.1 28.8 52.6 28.8C53.2 28.8 53.8 28.3 53.8 27.7C53.8 26.9 53.1 26.7 52.1 26.3C51.5 26.1 50.1 25.6 50.1 24.2C50.1 22.8 51.3 22 52.6 22C53.3 22 54.1 22.3 54.5 22.8C54.9 23.3 55 23.7 55 24.1H53.6C53.5 23.7 53.3 23.2 52.6 23.2C52 23.2 51.6 23.6 51.6 24.2C51.6 24.9 52.1 25.1 53.4 25.6C54.7 26.1 55.3 26.9 55.3 27.8C55.2 28.8 54.4 30 52.6 30Z" fill="black"/>
<path d="M61.4002 26.5C60.9002 26.9 60.4002 27.1 59.2002 27.1H58.1002V29.9H56.7002V22H59.0002C60.3002 22 60.8002 22.2 61.2002 22.5C61.8002 22.9 62.1002 23.7 62.1002 24.5C62.3002 25.3 61.9002 26.1 61.4002 26.5ZM60.4002 23.5C60.1002 23.3 59.6002 23.3 59.2002 23.3H58.2002V25.8H59.2002C59.7002 25.8 60.0002 25.8 60.4002 25.6C60.7002 25.4 60.9002 25 60.9002 24.6C60.9002 24.1 60.7002 23.7 60.4002 23.5Z" fill="black"/>
<path d="M68.2998 29.9L67.5998 28.1H64.4998L63.7998 29.9H62.2998L65.9998 21.9H66.2998L69.8998 29.9H68.2998ZM65.9998 24.4L64.7998 27H67.0998L65.9998 24.4Z" fill="black"/>
<path d="M71.3999 29.9V22H72.7999V29.8H71.3999V29.9Z" fill="black"/>
<path d="M81.1002 30H80.7002L76.0002 24.7001V29.8H74.7002V21.8H75.1002L79.8002 27V22H81.1002V30Z" fill="black"/>
<path d="M86.7275 0.676505H88.4255V17.4923H86.8929V17.6738H99.3995V11.3511H99.3127C99.0105 17.9483 91.3133 17.4923 91.3133 17.4923L91.3563 17.4992V9.00919C92.8597 9.00919 94.9039 8.79443 95.2059 12.6524H95.2593V5.23279H95.2059C94.8183 8.79327 92.8227 8.81855 91.3563 8.81855V0.643197V0.708665C94.2453 0.708665 97.4099 0.144728 98.6379 6.29403H98.7073V0.505371H86.7275V0.676505Z" fill="url(#paint0_linear_2501_373)"/>
<path d="M87.0769 0.674207V0.505371H83.5131V0.674207H85.0895V13.2381C85.0317 16.392 82.7247 17.8381 80.9457 17.7737C77.6817 17.6566 77.3067 14.5911 77.3067 13.9594V0.674207H78.8681V0.505371H72.7949V0.674207H74.4061L74.4013 12.4215C74.4013 15.5708 76.0137 18 80.7223 18C83.8799 18 85.3291 15.3974 85.2967 13.2393V0.674207H87.0769Z" fill="url(#paint1_linear_2501_373)"/>
<path d="M71.5758 10.6114H72.9V10.4414H67.4552V10.6114H68.8534V14.4165C68.8534 16.1773 68.0884 17.7852 65.6646 17.8323C63.9214 17.8564 62.9642 16.8767 62.4538 15.5203C61.9016 14.0685 61.698 12.5456 61.698 9.09418C61.698 6.88094 61.9016 3.5961 62.6668 2.12022C63.0278 1.42994 63.6876 0.209036 65.6218 0.215926C68.0478 0.225114 69.46 2.19142 70.5028 6.30896H70.555V0H70.4994C69.989 1.21401 68.0664 0.620214 68.0664 0.620214C67.0038 0.287136 66.5362 0.0493874 65.5998 0.0493874C62.602 0.0493874 58.4766 3.07236 58.4766 9.30896C58.4766 14.4028 61.559 18 65.7688 18C67.512 18 68.5756 16.74 70.063 16.74C70.5306 16.74 71.3884 17.0306 71.5376 17.768H71.5736L71.5758 10.6114Z" fill="url(#paint2_linear_2501_373)"/>
<path d="M53.7147 8.99776C53.7147 10.2129 53.6187 14.095 52.5965 16.0246C51.9577 17.2638 50.8511 17.7864 49.5513 17.7864C48.2526 17.7864 47.1449 17.2627 46.5071 16.0246C45.485 14.095 45.389 10.2118 45.389 8.99776C45.389 7.7826 45.485 4.01882 46.5071 2.01806C47.1252 0.778777 48.2526 0.256189 49.5513 0.256189C50.8499 0.256189 51.9785 0.779925 52.5965 2.01806C53.6187 4.01882 53.7147 7.7826 53.7147 8.99776ZM57.0043 8.99776C57.0043 3.61454 53.1081 0.088501 49.5523 0.088501C45.9966 0.088501 42.1006 3.61454 42.1006 8.99776C42.1006 14.381 46.1251 17.9541 49.5523 17.9541C52.9797 17.9541 57.0043 14.381 57.0043 8.99776Z" fill="url(#paint3_linear_2501_373)"/>
<path d="M40.496 0.50769V0.671932H42.1015L38.1498 13.7941L33.3764 0.671932H34.7561V0.50769H29V0.671932H30.58L37.0526 17.7669H37.1452L42.2971 0.671932H43.6745V0.50769H40.496Z" fill="url(#paint4_linear_2501_373)"/>
<defs>
<linearGradient id="paint0_linear_2501_373" x1="30.9053" y1="5.19231" x2="99.4209" y2="15.0526" gradientUnits="userSpaceOnUse">
<stop stop-color="#E40203"/>
<stop offset="0.121095" stop-color="#FF8B01"/>
<stop offset="0.248763" stop-color="#FFED00"/>
<stop offset="0.347212" stop-color="#008025"/>
<stop offset="0.410983" stop-color="#004DFF"/>
<stop offset="0.513243" stop-color="#750586"/>
<stop offset="0.621951" stop-color="#FEAFC7"/>
<stop offset="0.736203" stop-color="#75D7EF"/>
<stop offset="0.85549" stop-color="#613A15"/>
<stop offset="1"/>
</linearGradient>
<linearGradient id="paint1_linear_2501_373" x1="30.9053" y1="5.19231" x2="99.4209" y2="15.0526" gradientUnits="userSpaceOnUse">
<stop stop-color="#E40203"/>
<stop offset="0.121095" stop-color="#FF8B01"/>
<stop offset="0.248763" stop-color="#FFED00"/>
<stop offset="0.347212" stop-color="#008025"/>
<stop offset="0.410983" stop-color="#004DFF"/>
<stop offset="0.513243" stop-color="#750586"/>
<stop offset="0.621951" stop-color="#FEAFC7"/>
<stop offset="0.736203" stop-color="#75D7EF"/>
<stop offset="0.85549" stop-color="#613A15"/>
<stop offset="1"/>
</linearGradient>
<linearGradient id="paint2_linear_2501_373" x1="30.9061" y1="5.1923" x2="99.4218" y2="15.0526" gradientUnits="userSpaceOnUse">
<stop stop-color="#E40203"/>
<stop offset="0.121095" stop-color="#FF8B01"/>
<stop offset="0.248763" stop-color="#FFED00"/>
<stop offset="0.347212" stop-color="#008025"/>
<stop offset="0.410983" stop-color="#004DFF"/>
<stop offset="0.513243" stop-color="#750586"/>
<stop offset="0.621951" stop-color="#FEAFC7"/>
<stop offset="0.736203" stop-color="#75D7EF"/>
<stop offset="0.85549" stop-color="#613A15"/>
<stop offset="1"/>
</linearGradient>
<linearGradient id="paint3_linear_2501_373" x1="30.906" y1="5.19236" x2="99.4217" y2="15.0526" gradientUnits="userSpaceOnUse">
<stop stop-color="#E40203"/>
<stop offset="0.121095" stop-color="#FF8B01"/>
<stop offset="0.248763" stop-color="#FFED00"/>
<stop offset="0.347212" stop-color="#008025"/>
<stop offset="0.410983" stop-color="#004DFF"/>
<stop offset="0.513243" stop-color="#750586"/>
<stop offset="0.621951" stop-color="#FEAFC7"/>
<stop offset="0.736203" stop-color="#75D7EF"/>
<stop offset="0.85549" stop-color="#613A15"/>
<stop offset="1"/>
</linearGradient>
<linearGradient id="paint4_linear_2501_373" x1="30.9057" y1="5.19234" x2="99.4214" y2="15.0526" gradientUnits="userSpaceOnUse">
<stop stop-color="#E40203"/>
<stop offset="0.121095" stop-color="#FF8B01"/>
<stop offset="0.248763" stop-color="#FFED00"/>
<stop offset="0.347212" stop-color="#008025"/>
<stop offset="0.410983" stop-color="#004DFF"/>
<stop offset="0.513243" stop-color="#750586"/>
<stop offset="0.621951" stop-color="#FEAFC7"/>
<stop offset="0.736203" stop-color="#75D7EF"/>
<stop offset="0.85549" stop-color="#613A15"/>
<stop offset="1"/>
</linearGradient>
</defs>
</svg>
