<svg width="196" height="64" viewBox="0 0 196 64" fill="none" xmlns="http://www.w3.org/2000/svg">
<path fill-rule="evenodd" clip-rule="evenodd" d="M3.72152 36.6262C3.72152 38.735 5.33418 40.3477 7.44304 40.4717H7.56709C9.67595 40.4717 11.4127 38.8591 11.4127 36.7502C11.4127 34.6413 9.67595 32.9046 7.56709 32.9046C5.45823 32.7806 3.72152 34.5173 3.72152 36.6262Z" fill="white"/>
<path fill-rule="evenodd" clip-rule="evenodd" d="M0 47.5426C2.23291 47.9148 4.58987 48.0388 6.94684 48.0388C19.2278 48.0388 25.8025 43.697 25.8025 36.254C25.8025 29.3072 19.7241 25.3376 9.42785 25.3376C7.69114 25.3376 5.83038 25.3375 4.09367 25.4616L1.61266 31.292C3.59747 31.1679 4.96203 31.1679 7.56709 31.1679C15.8785 31.1679 18.9797 33.2768 18.9797 36.5021C18.9797 39.6034 15.2582 42.0844 7.07089 42.0844C5.58228 42.0844 3.96962 41.9603 2.48101 41.8363L0 47.5426ZM6.20253 19.6312C7.07089 17.1502 9.5519 15.6616 12.0329 15.9097H25.8025L25.4304 17.0262C25.0582 18.0186 23.5696 22.1122 18.9797 22.1122H10.4203C8.68354 22.1122 6.82279 22.1122 5.08608 22.3603L6.20253 19.6312Z" fill="white"/>
<path fill-rule="evenodd" clip-rule="evenodd" d="M127.4 23.3527H132.982V45.9299H127.4V23.3527ZM190.17 34.3932C190.17 28.811 189.301 27.3223 186.696 27.3223C184.215 27.3223 183.347 28.811 183.347 34.5173C183.347 40.2236 184.215 41.8363 186.696 41.8363C189.177 41.8363 190.17 40.3477 190.17 34.3932ZM177.392 34.5173C177.392 26.2059 180.99 22.8565 186.696 22.8565C192.278 22.8565 196 26.2059 196 34.5173C196 42.8287 192.527 46.3021 186.696 46.3021C180.866 46.3021 177.392 43.0768 177.392 34.5173ZM160.025 34.5173C160.025 25.4616 163.747 22.7325 169.205 22.7325C170.942 22.6084 172.803 22.8565 174.415 23.3527L174.291 27.9426C172.803 27.5704 171.19 27.4464 169.701 27.4464C167.096 27.4464 166.228 28.935 166.228 34.2692C166.228 39.6034 167.096 41.5882 169.701 41.5882C171.314 41.7122 172.803 41.5882 174.291 41.092L174.415 45.5578C172.803 46.054 171.066 46.178 169.329 46.3021C163.251 46.3021 160.025 42.8287 160.025 34.5173ZM139.309 23.3527H144.395L148.861 32.7806C149.481 34.1451 150.225 36.254 150.722 37.7426L150.846 37.9907C150.722 36.6261 150.473 33.6489 150.473 31.5401V23.2287H155.435V45.8059H149.977L146.008 37.3704C145.139 35.3856 144.395 33.4008 143.775 31.416C143.775 33.5249 144.395 36.0059 144.395 38.2388V45.9299H139.433L139.309 23.3527ZM105.939 32.0363C105.939 21.2439 109.909 17.6464 116.98 17.6464C118.965 17.5223 121.073 17.7704 122.934 18.5148L122.81 23.3527C121.073 22.9806 119.213 22.7325 117.352 22.7325C113.382 22.7325 112.514 24.4692 112.514 31.7882C112.514 39.4793 113.878 41.3401 117.352 41.3401C119.213 41.3401 120.949 41.092 122.81 40.8439L122.934 45.6818C121.073 46.178 119.089 46.4261 117.104 46.4261C109.537 46.3021 105.939 42.0844 105.939 32.0363ZM88.6962 23.3527H101.349V27.9426H94.2785V31.9122H100.109V36.378H94.2785V40.9679H101.97V45.6818H88.6962V23.3527ZM71.2051 23.3527H76.7873V41.092H83.7342V45.9299H71.3291L71.2051 23.3527ZM52.8456 23.3527H65.6228V27.9426H58.4278V31.9122H64.1342V36.378H58.4278V40.9679H66.119V45.6818H52.8456V23.3527ZM37.4633 28.0666H32.7494V23.2287H47.7595V28.0666H42.9215V45.8059H37.4633V28.0666V28.0666Z" fill="white"/>
</svg>
